<svg id="Layer_1" data-name="Layer 1" xmlns="http://www.w3.org/2000/svg" viewBox="0 0 412.19 273.31"><defs><style>.cls-1{fill:#231f20;}</style></defs><polygon class="cls-1" points="127.28 149.32 78.69 123.89 30.19 149.51 39.35 95.43 0 57.23 54.26 49.23 78.44 0 102.81 49.14 157.1 56.91 117.9 95.28 127.28 149.32"/><path class="cls-1" d="M405.18,332.77l-4.68-1.17a10.79,10.79,0,0,1-4.88-18.21l3.47-3.35a5,5,0,0,0-4.81-8.32L389.65,303a10.78,10.78,0,0,1-13.33-13.33l1.33-4.63a5,5,0,0,0-8.33-4.81L366,283.74a10.79,10.79,0,0,1-18.21-4.88l-1.17-4.68a5,5,0,0,0-9.61,0l-1.17,4.68a10.78,10.78,0,0,1-18.2,4.88l-3.36-3.47a5,5,0,0,0-8.32,4.81l1.32,4.63A10.78,10.78,0,0,1,293.93,303l-4.64-1.32a5,5,0,0,0-4.81,8.32l3.47,3.35a10.78,10.78,0,0,1-4.88,18.21l-4.68,1.17a5,5,0,0,0,0,9.61l4.68,1.17A10.78,10.78,0,0,1,288,361.76l-3.47,3.35a5,5,0,0,0,4.81,8.32l4.64-1.32a10.77,10.77,0,0,1,13.32,13.33l-1.32,4.63a5,5,0,0,0,8.32,4.81l3.36-3.47a10.78,10.78,0,0,1,18.2,4.88L337,401a5,5,0,0,0,9.61,0l1.17-4.68A10.79,10.79,0,0,1,366,391.41l3.35,3.47a5,5,0,0,0,8.33-4.81l-1.33-4.63a10.78,10.78,0,0,1,13.33-13.33l4.63,1.32a5,5,0,0,0,4.81-8.32l-3.47-3.35a10.79,10.79,0,0,1,4.88-18.21l4.68-1.17A5,5,0,0,0,405.18,332.77Zm-63.39,39.88a35.08,35.08,0,1,1,35.08-35.08A35.07,35.07,0,0,1,341.79,372.65Z" transform="translate(3.26 -131.41)"/></svg>